<?xml version="1.0" encoding="UTF-8" standalone="no"?>
<svg width="804px" height="125px" viewBox="0 0 804 125" version="1.1" xmlns="http://www.w3.org/2000/svg" xmlns:xlink="http://www.w3.org/1999/xlink" xmlns:sketch="http://www.bohemiancoding.com/sketch/ns">
    <!-- Generator: Sketch 3.3 (11970) - http://www.bohemiancoding.com/sketch -->
    <title>Slice 2</title>
    <desc>Created with Sketch.</desc>
    <defs></defs>
    <g id="Page-1" stroke="none" stroke-width="1" fill="none" fill-rule="evenodd" sketch:type="MSPage">
        <path d="M91.3757399,80.1049239 C91.3715014,80.1112966 91.367262,80.1176631 91.3630218,80.1240234 C89.8818946,82.3457142 88.3933841,84.0415794 86.8974456,85.2116699 C85.4015072,86.3817604 83.9352132,87.1445295 82.4985199,87.5 C81.0618265,87.8554705 79.7510486,88.0332031 78.5661468,88.0332031 C76.5518138,88.0332031 74.8633541,87.7443877 73.5007171,87.166748 C72.1380801,86.5891084 71.0346569,85.8189339 70.1904144,84.8562012 C69.3461719,83.8934685 68.7389188,82.7974508 68.368637,81.5681152 C67.9983552,80.3387797 67.8132171,79.0724349 67.8132171,77.769043 C67.8132171,76.2286707 68.0279773,74.4291281 68.4575042,72.3703613 C68.8870311,70.3115945 69.3535792,68.2010199 69.8571624,66.0385742 C70.3607457,63.8761285 70.8272938,61.7877705 71.2568206,59.7734375 C71.6863475,57.7591045 71.9011077,56.0262117 71.9011077,54.574707 C71.9011077,51.4643399 70.8050901,49.9091797 68.6130218,49.9091797 C67.8132131,49.9091797 67.0726606,50.1165344 66.3913421,50.53125 C65.7100236,50.9459656 65.080554,51.5087855 64.5029144,52.2197266 C63.9252748,52.9306676 63.406888,53.7600864 62.9477386,54.7080078 C62.4885892,55.6559292 62.0812853,56.6630806 61.7258148,57.7294922 C60.9556286,61.7877807 60.1113988,66.2459067 59.1930999,71.1040039 C58.2748011,75.9621011 57.2676497,81.4273785 56.1716156,87.5 L43.0637054,87.5 L55.5495452,29.425293 C53.683325,29.2771802 51.7430775,29.0698256 49.7287445,28.8032227 C47.7144115,28.5366198 45.6408645,28.2403988 43.5080413,27.9145508 L30.6667327,87.5 L17.6032562,87.5 L30.5778656,27.0703125 C28.0303268,27.1888027 25.6457478,27.5442679 23.424057,28.1367187 C21.2023662,28.7291696 19.2695242,29.72151 17.625473,31.1137695 C15.9814218,32.5060291 14.6854549,34.3796269 13.7375335,36.7346191 C12.7896121,39.0896114 12.3156585,42.0592269 12.3156585,45.6435547 C12.3156585,46.7988339 12.3823083,47.7393356 12.5156097,48.4650879 C12.6489111,49.1908402 12.7896161,49.7684712 12.9377288,50.197998 C13.0858416,50.6275249 13.2265465,50.9607736 13.359848,51.1977539 C13.4931494,51.4347343 13.5597992,51.642089 13.5597992,51.8198242 C11.9898043,51.8198242 10.5975656,51.6643082 9.38304134,51.3532715 C8.16851704,51.0422348 7.15396013,50.5460646 6.33934017,49.8647461 C5.52472021,49.1834276 4.90265612,48.2799535 4.47312923,47.1542969 C4.04360235,46.0286402 3.82884212,44.6512126 3.82884212,43.0219727 C3.82884212,40.0004732 4.44350069,37.0604798 5.67283626,34.2019043 C6.90217184,31.3433288 8.81279726,28.8180448 11.4047699,26.6259766 C13.9967425,24.4339083 17.3144176,22.6713934 21.3578949,21.3383789 C25.4013721,20.0053644 30.2371799,19.3388672 35.8654632,19.3388672 C36.8726297,19.3388672 38.2944905,19.4647611 40.1310882,19.7165527 C41.9676859,19.9683444 44.0042053,20.2349433 46.2407074,20.5163574 C48.4772094,20.7977716 50.8247608,21.0643705 53.283432,21.3161621 C55.7421031,21.5679537 58.1266821,21.6938477 60.4372406,21.6938477 C62.6589314,21.6938477 64.7324783,21.5457372 66.6579437,21.2495117 C68.583409,20.9532863 70.1830024,20.3756553 71.4567718,19.5166016 C71.1013013,20.1979201 70.7606471,20.8644173 70.4347992,21.5161133 C70.1089512,22.1678092 69.7757026,22.9305783 69.4350433,23.8044434 C69.094384,24.6783084 68.7463244,25.7224874 68.3908538,26.9370117 C68.0353833,28.151536 67.6280794,29.6622631 67.16893,31.4692383 C66.7097806,33.2762135 66.2062049,35.4386267 65.6581878,37.956543 C65.1101708,40.4744592 64.4955122,43.4662913 63.8141937,46.9321289 C64.7917376,45.8064722 65.7692669,44.8955927 66.7468109,44.1994629 C67.7243548,43.5033331 68.6796675,42.9701353 69.6127777,42.5998535 C70.5458878,42.2295717 71.4345508,41.9777839 72.2787933,41.8444824 C73.1230358,41.711181 73.915427,41.6445312 74.6559906,41.6445312 C76.1074952,41.6445312 77.4478952,41.8370749 78.6772308,42.222168 C79.9065664,42.607261 80.972962,43.2145141 81.8764495,44.0439453 C82.7799371,44.8733765 83.483462,45.9397721 83.9870452,47.2431641 C84.4906285,48.546556 84.7424163,50.1017162 84.7424163,51.9086914 C84.7424163,53.1232157 84.6313335,54.4339936 84.4091644,55.8410645 C84.1869953,57.2481353 83.9203964,58.6848071 83.6093597,60.151123 C83.298323,61.617439 82.9502633,63.0763274 82.5651702,64.527832 C82.1800772,65.9793367 81.8320175,67.3715754 81.5209808,68.7045898 C81.2099441,70.0376043 80.9433452,71.274327 80.7211761,72.4147949 C80.499007,73.5552629 80.3879242,74.5550087 80.3879242,75.4140625 C80.3879242,76.5397192 80.639712,77.4580043 81.1432952,78.1689453 C81.6468785,78.8798864 82.6095967,79.2353516 84.0314788,79.2353516 C85.0090228,79.2353516 85.8680637,79.0428079 86.6086273,78.6577148 C87.3491909,78.2726218 88.0156881,77.7246129 88.608139,77.0136719 C89.2005899,76.3027308 89.7411932,75.4510955 90.2299652,74.4587402 C90.283568,74.3499102 90.3370817,74.2399225 90.3905063,74.128777 C90.3871573,73.9518031 90.3854827,73.7729725 90.3854827,73.5922852 C90.3854827,71.8445551 90.5632153,69.8302523 90.9186859,67.5493164 C91.2741564,65.2683805 91.8369763,62.9282347 92.6071624,60.5288086 C93.3773486,58.1293825 94.399311,55.7744256 95.6730804,53.4638672 C96.9468498,51.1533088 98.487199,49.0871673 100.294174,47.2653809 C102.101149,45.4435944 104.219129,43.9773005 106.648178,42.8664551 C109.077227,41.7556097 111.846893,41.2001953 114.95726,41.2001953 C117.001216,41.2001953 118.667459,41.4445776 119.956039,41.9333496 C121.24462,42.4221216 122.266582,43.0664023 123.021957,43.8662109 C123.777332,44.6660196 124.295719,45.5917102 124.577133,46.6433105 C124.858547,47.6949109 124.999252,48.783523 124.999252,49.9091797 C124.999252,52.5455861 124.421621,54.9968148 123.266342,57.2629395 C122.111063,59.5290641 120.563308,61.5063392 118.623032,63.1948242 C116.682755,64.8833092 114.453692,66.2459258 111.935776,67.2827148 C109.417859,68.3195039 106.796304,68.9267569 104.07103,69.1044922 C104.011785,69.6080754 103.959946,70.0894346 103.915512,70.548584 C103.871078,71.0077334 103.848862,71.4446594 103.848862,71.859375 C103.848862,73.3108797 103.996972,74.5253857 104.293198,75.5029297 C104.589423,76.4804736 104.989321,77.2580538 105.492905,77.8356934 C105.996488,78.413333 106.58893,78.8206368 107.270248,79.0576172 C107.951567,79.2945975 108.692119,79.4130859 109.491928,79.4130859 C110.380604,79.4130859 111.306295,79.2797865 112.269028,79.0131836 C113.23176,78.7465807 114.179668,78.3911155 115.112778,77.9467773 C116.045888,77.5024392 116.956767,76.991458 117.845444,76.4138184 C118.73412,75.8361788 119.533917,75.2215202 120.244858,74.5698242 C119.770897,77.2062306 119.030345,79.383455 118.023178,81.1015625 C117.016012,82.81967 115.816317,84.1970977 114.424057,85.2338867 C113.031797,86.2706758 111.491448,86.9964172 109.802963,87.4111328 C108.114478,87.8258484 106.351963,88.0332031 104.515366,88.0332031 C102.382542,88.0332031 100.4497,87.7591987 98.7167816,87.2111816 C96.9838628,86.6631646 95.5027578,85.8115292 94.2734222,84.65625 C93.0440866,83.5009708 92.0887739,82.0124603 91.4074554,80.1906738 C91.3968003,80.1621829 91.3862284,80.1335996 91.3757399,80.1049239 Z M104.6931,64.75 C106.44083,64.6907549 108.114479,64.2242068 109.714096,63.3503418 C111.313713,62.4764768 112.728169,61.350837 113.957504,59.9733887 C115.18684,58.5959404 116.164369,57.0185636 116.890121,55.2412109 C117.615874,53.4638583 117.978744,51.6272881 117.978744,49.7314453 C117.978744,48.6057886 117.815823,47.7023146 117.489975,47.0209961 C117.164127,46.3396776 116.571685,45.9990234 115.712631,45.9990234 C114.557352,45.9990234 113.424307,46.5692489 112.313461,47.7097168 C111.202616,48.8501847 110.165842,50.3238842 109.20311,52.1308594 C108.240377,53.9378346 107.366525,55.9521373 106.581528,58.1738281 C105.79653,60.3955189 105.167061,62.5875543 104.6931,64.75 L104.6931,64.75 Z M224.65651,82.5021607 C223.670129,83.5936887 222.665407,84.4894453 221.642319,85.1894531 C220.516662,85.9596393 219.420644,86.5520813 218.354233,86.9667969 C217.287821,87.3815125 216.265859,87.6629224 215.288315,87.8110352 C214.310771,87.9591479 213.422108,88.0332031 212.622299,88.0332031 C210.045138,88.0332031 207.993807,87.3296783 206.468246,85.9226074 C204.942685,84.5155366 204.016995,82.4345841 203.691147,79.6796875 C202.950583,80.7164765 202.135975,81.7310334 201.247299,82.7233887 C200.358623,83.7157439 199.366282,84.6044069 198.270248,85.3894043 C197.174214,86.1744017 195.952303,86.8112769 194.604477,87.3000488 C193.256651,87.7888208 191.768141,88.0332031 190.138901,88.0332031 C188.568906,88.0332031 187.058179,87.7814153 185.606674,87.277832 C184.15517,86.7742488 182.866608,85.94483 181.740951,84.7895508 C180.615295,83.6342716 179.711821,82.1235445 179.030502,80.2573242 C178.349184,78.391104 178.00853,76.1102023 178.00853,73.4145508 C178.00853,71.3409727 178.215884,69.1193152 178.6306,66.7495117 C179.045316,64.3797082 179.682191,62.0099402 180.541244,59.6401367 C181.400298,57.2703332 182.474099,54.9968371 183.76268,52.8195801 C185.051261,50.6423231 186.561988,48.7168866 188.294907,47.0432129 C190.027825,45.3695392 191.990289,44.0365447 194.182358,43.0441895 C196.374426,42.0518342 198.788627,41.5556641 201.425034,41.5556641 C204.002195,41.5556641 205.875793,41.9999956 207.045883,42.8886719 C208.215974,43.7773482 208.80101,44.8733659 208.80101,46.1767578 L208.80101,46.8432617 L209.778549,42 L222.886459,42 L216.354721,72.9257813 C216.206608,73.4293645 216.102931,73.9255347 216.043686,74.4143066 C215.984441,74.9030786 215.954819,75.3844377 215.954819,75.8583984 C215.954819,78.4651823 217.198947,79.7685547 219.687241,79.7685547 C220.575917,79.7685547 221.39793,79.5389834 222.153305,79.079834 C222.90868,78.6206846 223.597394,78.006026 224.219467,77.2358398 C224.841541,76.4656537 225.389549,75.5547741 225.86351,74.5031738 C226.31855,73.493553 226.705324,72.4361642 227.02384,71.3309781 L233.239487,42 L246.347397,42 L245.192123,47.6430664 C245.991932,46.9321254 246.80654,46.236006 247.635971,45.5546875 C248.465402,44.873369 249.331849,44.2735215 250.235336,43.755127 C251.138824,43.2367324 252.079326,42.8146175 253.056869,42.4887695 C254.034413,42.1629215 255.071187,42 256.167221,42 C257.20401,42 258.11489,42.1925436 258.899887,42.5776367 C259.684884,42.9627298 260.343976,43.4663055 260.877182,44.0883789 C261.410388,44.7104523 261.810286,45.4361938 262.076889,46.265625 C262.343492,47.0950562 262.476791,47.9540971 262.476791,48.8427734 C262.476791,49.6425821 262.343492,50.4349733 262.076889,51.2199707 C261.810286,52.0049681 261.402982,52.708493 260.854965,53.3305664 C260.306948,53.9526398 259.618234,54.463621 258.788803,54.8635254 C257.959372,55.2634297 256.996654,55.4633789 255.900619,55.4633789 C255.041566,55.4633789 254.382474,55.3152684 253.923325,55.019043 C253.464175,54.7228175 253.116115,54.3525413 252.879135,53.9082031 C252.642155,53.463865 252.471828,52.9825058 252.368149,52.4641113 C252.26447,51.9457168 252.153387,51.4643577 252.034897,51.0200195 C251.916407,50.5756814 251.760891,50.2054051 251.568344,49.9091797 C251.375798,49.6129542 251.05736,49.4648438 250.613022,49.4648438 C249.220762,49.4648438 248.050689,49.7832813 247.102768,50.420166 C246.154846,51.0570507 245.118073,51.893875 243.992416,52.9306641 L236.705307,87.5 L223.597397,87.5 L224.656508,82.5021658 Z M166.455795,26.6259766 C162.427129,28.284839 159.301998,30.7656899 157.080307,34.0686035 C154.858616,37.3715172 153.747787,41.4963945 153.747787,46.4433594 C153.747787,47.5986386 153.814437,48.5391403 153.947739,49.2648926 C154.08104,49.9906449 154.221745,50.5756814 154.369858,51.0200195 C154.51797,51.4643577 154.658675,51.8050118 154.791977,52.0419922 C154.925278,52.2789725 154.991928,52.4863272 154.991928,52.6640625 C153.421933,52.6640625 152.029695,52.5085465 150.81517,52.1975098 C149.600646,51.8864731 148.586089,51.3828974 147.771469,50.6867676 C146.956849,49.9906378 146.334785,49.0797582 145.905258,47.9541016 C145.475731,46.8284449 145.260971,45.4510173 145.260971,43.8217773 C145.260971,41.8074444 145.697897,39.8227637 146.571762,37.8676758 C147.445627,35.9125879 148.645322,34.0612067 150.170883,32.3134766 C151.696444,30.5657465 153.488581,28.9439365 155.547348,27.447998 C157.606115,25.9520596 159.812961,24.6634982 162.167953,23.5822754 C164.522946,22.5010525 166.98158,21.6568227 169.54393,21.0495605 C172.10628,20.4422984 174.661186,20.1386719 177.208725,20.1386719 C177.890043,20.1386719 178.519513,20.1608884 179.097153,20.2053223 C179.674792,20.2497561 180.259829,20.3015948 180.85228,20.3608398 L166.855698,85.6782227 C168.425692,86.0336932 170.003069,86.5742965 171.587875,87.3000488 C173.172681,88.0258012 174.77968,88.8255978 176.40892,89.6994629 C178.03816,90.5733279 179.689592,91.4619909 181.363266,92.3654785 C183.03694,93.2689661 184.74021,94.0983849 186.473129,94.8537598 C188.206048,95.6091346 189.983374,96.2237932 191.80516,96.6977539 C193.626947,97.1717146 195.500545,97.4086914 197.42601,97.4086914 C198.670157,97.4086914 199.921691,97.3050141 201.180649,97.0976562 C202.439607,96.8902984 203.735574,96.5052111 205.068588,95.9423828 C204.801985,98.1344511 204.394681,100.111726 203.846664,101.874268 C203.298647,103.636809 202.624745,105.14013 201.824936,106.384277 C201.025127,107.628424 200.099437,108.583737 199.047836,109.250244 C197.996236,109.916751 196.84838,110.25 195.604233,110.25 C193.441787,110.25 191.308996,109.739019 189.205795,108.717041 C187.102595,107.695063 184.99202,106.421313 182.874008,104.895752 C180.755996,103.370191 178.6158,101.711353 176.453354,99.9191895 C174.290908,98.1270255 172.069251,96.468188 169.788315,94.942627 C167.507379,93.4170659 165.145016,92.1433157 162.701157,91.1213379 C160.257297,90.0993601 157.68758,89.5883789 154.991928,89.5883789 L153.969955,89.5883789 C153.644107,89.5883789 153.288642,89.618001 152.903549,89.6772461 L166.455795,26.6259766 Z M306.130168,74.6409442 C305.873247,75.2320431 305.607522,75.7859724 305.332993,76.3027344 C304.577618,77.7246165 303.733388,78.9465281 302.800278,79.9685059 C301.867168,80.9904836 300.8378,81.8347135 299.712143,82.5012207 C298.586486,83.1677279 297.327547,83.7379534 295.935287,84.2119141 L304.955307,42 L291.847397,42 L290.869858,46.7099609 L290.869858,46.1767578 C290.869858,44.8733659 290.284821,43.7773482 289.114731,42.8886719 C287.94464,41.9999956 286.071043,41.5556641 283.493881,41.5556641 C280.857475,41.5556641 278.443274,42.0518342 276.251205,43.0441895 C274.059137,44.0365447 272.096673,45.3695392 270.363754,47.0432129 C268.630835,48.7168866 267.120108,50.6423231 265.831528,52.8195801 C264.542947,54.9968371 263.469146,57.2703332 262.610092,59.6401367 C261.751038,62.0099402 261.114163,64.3797082 260.699448,66.7495117 C260.284732,69.1193152 260.077377,71.3409727 260.077377,73.4145508 C260.077377,76.1102023 260.418031,78.391104 261.09935,80.2573242 C261.780668,82.1235445 262.684142,83.6342716 263.809799,84.7895508 C264.935456,85.94483 266.224017,86.7742488 267.675522,87.277832 C269.127026,87.7814153 270.637754,88.0332031 272.207748,88.0332031 C274.577552,88.0332031 276.658504,87.5592495 278.450668,86.6113281 C280.242832,85.6634067 281.805398,84.4785227 283.138412,83.0566406 L282.027573,87.8554688 C280.309465,88.3886745 278.569167,89.0403607 276.806625,89.8105469 C275.044084,90.580733 273.451896,91.5064236 272.030014,92.5876465 C270.608132,93.6688693 269.445464,94.9352141 268.541977,96.3867188 C267.638489,97.8382234 267.186752,99.511872 267.186752,101.407715 C267.186752,102.888842 267.460757,104.184809 268.008774,105.295654 C268.556791,106.4065 269.289938,107.324785 270.208237,108.050537 C271.126536,108.776289 272.200337,109.324298 273.429672,109.69458 C274.659008,110.064862 275.969786,110.25 277.362045,110.25 C278.872795,110.25 280.450172,110.057456 282.094223,109.672363 C283.738274,109.28727 285.315651,108.531907 286.826401,107.40625 C288.33715,106.280593 289.707173,104.710622 290.936508,102.696289 C292.165844,100.681956 293.106345,98.0455892 293.758041,94.7871094 L295.135483,88.2109375 C296.557365,87.855467 298.023659,87.3370802 299.534409,86.6557617 C301.045158,85.9744432 302.511452,84.9895084 303.933334,83.7009277 C305.032613,82.7047064 306.083189,81.4916063 307.085082,80.0616043 C307.100717,80.1048361 307.116541,80.1478592 307.132553,80.1906738 C307.813872,82.0124603 308.769184,83.5009708 309.99852,84.65625 C311.227855,85.8115292 312.70896,86.6631646 314.441879,87.2111816 C316.174798,87.7591987 318.10764,88.0332031 320.240463,88.0332031 C322.077061,88.0332031 323.839576,87.8258484 325.528061,87.4111328 C327.216546,86.9964172 328.756895,86.2706758 330.149155,85.2338867 C331.541414,84.1970977 332.741109,82.81967 333.748276,81.1015625 C334.755442,79.383455 335.495995,77.2062306 335.969955,74.5698242 C335.259014,75.2215202 334.459218,75.8361788 333.570541,76.4138184 C332.681865,76.991458 331.770985,77.5024392 330.837875,77.9467773 C329.904765,78.3911155 328.956858,78.7465807 327.994125,79.0131836 C327.031393,79.2797865 326.105702,79.4130859 325.217026,79.4130859 C324.417217,79.4130859 323.676665,79.2945975 322.995346,79.0576172 C322.314028,78.8206368 321.721586,78.413333 321.218002,77.8356934 C320.714419,77.2580538 320.314521,76.4804736 320.018295,75.5029297 C319.72207,74.5253857 319.573959,73.3108797 319.573959,71.859375 C319.573959,71.4446594 319.596176,71.0077334 319.64061,70.548584 C319.685044,70.0894346 319.736882,69.6080754 319.796127,69.1044922 C322.521401,68.9267569 325.142957,68.3195039 327.660873,67.2827148 C330.17879,66.2459258 332.407853,64.8833092 334.348129,63.1948242 C336.288406,61.5063392 337.836161,59.5290641 338.99144,57.2629395 C340.146719,54.9968148 340.72435,52.5455861 340.72435,49.9091797 C340.72435,48.783523 340.583645,47.6949109 340.302231,46.6433105 C340.020817,45.5917102 339.50243,44.6660196 338.747055,43.8662109 C337.99168,43.0664023 336.969718,42.4221216 335.681137,41.9333496 C334.392556,41.4445776 332.726313,41.2001953 330.682358,41.2001953 C327.571991,41.2001953 324.802324,41.7556097 322.373276,42.8664551 C319.944227,43.9773005 317.826247,45.4435944 316.019272,47.2653809 C314.212297,49.0871673 312.671947,51.1533088 311.398178,53.4638672 C310.124409,55.7744256 309.102446,58.1293825 308.33226,60.5288086 C307.562074,62.9282347 306.999254,65.2683805 306.643784,67.5493164 C306.288313,69.8302523 306.11058,71.8445551 306.11058,73.5922852 C306.11058,73.9490778 306.11711,74.2986307 306.130168,74.6409442 Z M207.956772,50.6645508 C207.956772,50.3979479 207.897528,50.0646993 207.779037,49.6647949 C207.660547,49.2648906 207.460598,48.8798033 207.179184,48.5095215 C206.89777,48.1392397 206.520088,47.8282076 206.046127,47.576416 C205.572167,47.3246244 204.964914,47.1987305 204.22435,47.1987305 C202.950581,47.1987305 201.74348,47.6134399 200.603012,48.4428711 C199.462544,49.2723023 198.418365,50.3757255 197.470444,51.7531738 C196.522522,53.1306221 195.678292,54.6931879 194.937729,56.440918 C194.197165,58.1886481 193.567696,59.9881906 193.049301,61.8395996 C192.530907,63.6910086 192.138414,65.5127677 191.871811,67.3049316 C191.605208,69.0970955 191.471909,70.7040945 191.471909,72.1259766 C191.471909,73.8737067 191.63483,75.2215122 191.960678,76.1694336 C192.286526,77.117355 192.679019,77.8208799 193.138168,78.2800293 C193.597318,78.7391787 194.093488,79.0131831 194.626694,79.1020508 C195.159899,79.1909184 195.633853,79.2353516 196.048569,79.2353516 C196.729887,79.2353516 197.448223,79.0650245 198.203598,78.7243652 C198.958973,78.383706 199.684714,77.8801303 200.380844,77.213623 C201.076974,76.5471158 201.713849,75.7102915 202.291489,74.703125 C202.869128,73.6959585 203.306054,72.5258856 203.60228,71.1928711 L207.956772,50.6645508 Z M290.025619,50.5756836 C290.025619,50.3090807 289.966375,49.9832376 289.847885,49.5981445 C289.729395,49.2130515 289.529446,48.8427752 289.248032,48.4873047 C288.966617,48.1318342 288.588936,47.8282076 288.114975,47.576416 C287.641014,47.3246244 287.033761,47.1987305 286.293198,47.1987305 C285.019428,47.1987305 283.812328,47.6134399 282.67186,48.4428711 C281.531392,49.2723023 280.487213,50.3757255 279.539291,51.7531738 C278.59137,53.1306221 277.74714,54.6931879 277.006576,56.440918 C276.266013,58.1886481 275.636543,59.9881906 275.118149,61.8395996 C274.599754,63.6910086 274.207261,65.5127677 273.940659,67.3049316 C273.674056,69.0970955 273.540756,70.7040945 273.540756,72.1259766 C273.540756,73.8737067 273.703678,75.2215122 274.029526,76.1694336 C274.355374,77.117355 274.747867,77.8208799 275.207016,78.2800293 C275.666165,78.7391787 276.162336,79.0131831 276.695541,79.1020508 C277.228747,79.1909184 277.702701,79.2353516 278.117416,79.2353516 C278.73949,79.2353516 279.405987,79.0798355 280.116928,78.7687988 C280.827869,78.4577621 281.531394,78.0060251 282.227524,77.4135742 C282.923654,76.8211233 283.553123,76.0805708 284.115951,75.1918945 C284.67878,74.3032182 285.1083,73.2812558 285.404526,72.1259766 L290.025619,50.5756836 Z M281.094467,92.4321289 C279.909565,92.8764671 278.783926,93.3578262 277.717514,93.8762207 C276.651102,94.3946152 275.710601,94.9648406 274.895981,95.5869141 C274.081361,96.2089875 273.429675,96.8977013 272.940903,97.6530762 C272.452131,98.408451 272.207748,99.2452754 272.207748,100.163574 C272.207748,100.489422 272.266993,100.830076 272.385483,101.185547 C272.503973,101.541017 272.689111,101.86686 272.940903,102.163086 C273.192694,102.459311 273.511132,102.696288 273.896225,102.874023 C274.281318,103.051759 274.740461,103.140625 275.273666,103.140625 C276.221588,103.140625 277.191712,102.481533 278.184067,101.16333 C279.176422,99.8451269 279.968813,97.8086075 280.561264,95.0537109 L281.094467,92.4321289 Z M320.418198,64.75 C322.165928,64.6907549 323.839576,64.2242068 325.439194,63.3503418 C327.038811,62.4764768 328.453266,61.350837 329.682602,59.9733887 C330.911937,58.5959404 331.889467,57.0185636 332.615219,55.2412109 C333.340971,53.4638583 333.703842,51.6272881 333.703842,49.7314453 C333.703842,48.6057886 333.540921,47.7023146 333.215073,47.0209961 C332.889225,46.3396776 332.296783,45.9990234 331.437729,45.9990234 C330.28245,45.9990234 329.149404,46.5692489 328.038559,47.7097168 C326.927714,48.8501847 325.89094,50.3238842 324.928207,52.1308594 C323.965475,53.9378346 323.091623,55.9521373 322.306625,58.1738281 C321.521628,60.3955189 320.892158,62.5875543 320.418198,64.75 L320.418198,64.75 Z M444.872123,58.3764085 C442.502459,59.323983 439.956473,60.0266335 437.234116,60.484375 C436.878645,64.6907762 436.071443,68.482405 434.812485,71.859375 C433.553527,75.236345 431.961339,78.1096887 430.035873,80.4794922 C428.110408,82.8492957 425.903562,84.6710548 423.415268,85.9448242 C420.926974,87.2185936 418.290607,87.8554688 415.506088,87.8554688 C413.402888,87.8554688 411.455235,87.5962754 409.663071,87.0778809 C407.870907,86.5594863 406.330558,85.7300676 405.041977,84.5895996 C403.753396,83.4491317 402.746245,81.9680267 402.020493,80.1462402 C401.29474,78.3244538 400.931869,76.1102018 400.931869,73.503418 C400.931869,71.7260653 401.117008,69.704357 401.487289,67.4382324 C401.857571,65.1721078 402.450013,62.8393675 403.264633,60.4399414 C404.079253,58.0405153 405.130838,55.692964 406.419418,53.3972168 C407.707999,51.1014696 409.27797,49.0501392 411.129379,47.2431641 C412.980788,45.4361889 415.120985,43.9773005 417.550034,42.8664551 C419.979082,41.7556097 422.748748,41.2001953 425.859116,41.2001953 C433.649845,41.2001953 437.545151,46.0434086 437.545151,55.7299805 L437.545151,55.8188477 C437.693263,55.8780927 437.833968,55.9077148 437.96727,55.9077148 L438.52269,55.9077148 C439.589101,55.9077148 440.736958,55.7521988 441.966293,55.4411621 C443.195629,55.1301254 444.432352,54.7228215 445.676498,54.2192383 C445.704449,54.2079251 445.732384,54.1965709 445.760304,54.1851755 L448.342514,42 L461.450424,42 L460.295151,47.6430664 C461.094959,46.9321254 461.909567,46.236006 462.738998,45.5546875 C463.56843,44.873369 464.434876,44.2735215 465.338364,43.755127 C466.241851,43.2367324 467.182353,42.8146175 468.159897,42.4887695 C469.137441,42.1629215 470.174214,42 471.270248,42 C472.307037,42 473.217917,42.1925436 474.002914,42.5776367 C474.787912,42.9627298 475.447004,43.4663055 475.980209,44.0883789 C476.513415,44.7104523 476.913313,45.4361938 477.179916,46.265625 C477.446519,47.0950562 477.579819,47.9540971 477.579819,48.8427734 C477.579819,49.6425821 477.446519,50.4349733 477.179916,51.2199707 C476.913313,52.0049681 476.50601,52.708493 475.957993,53.3305664 C475.409975,53.9526398 474.721262,54.463621 473.89183,54.8635254 C473.062399,55.2634297 472.099681,55.4633789 471.003647,55.4633789 C470.144593,55.4633789 469.485501,55.3152684 469.026352,55.019043 C468.567202,54.7228175 468.219143,54.3525413 467.982162,53.9082031 C467.745182,53.463865 467.574855,52.9825058 467.471176,52.4641113 C467.367497,51.9457168 467.256414,51.4643577 467.137924,51.0200195 C467.019434,50.5756814 466.863918,50.2054051 466.671371,49.9091797 C466.478825,49.6129542 466.160387,49.4648438 465.716049,49.4648438 C464.32379,49.4648438 463.153717,49.7832813 462.205795,50.420166 C461.257874,51.0570507 460.2211,51.893875 459.095444,52.9306641 L451.808334,87.5 L438.700424,87.5 L444.872123,58.3764085 Z M368.450912,87.5 L381.558823,26.7148437 C379.811092,26.7740888 378.211499,27.1073375 376.759994,27.7145996 C375.30849,28.3218618 374.064362,29.3364187 373.027573,30.7583008 C371.990784,32.1801829 371.183581,34.0908083 370.605942,36.4902344 C370.028302,38.8896604 369.739487,41.9111146 369.739487,45.5546875 C369.739487,46.7099667 369.806136,47.6504684 369.939438,48.3762207 C370.072739,49.101973 370.22085,49.679604 370.383774,50.1091309 C370.546698,50.5386577 370.694808,50.8719064 370.82811,51.1088867 C370.961411,51.3458671 371.028061,51.5532218 371.028061,51.730957 C369.458066,51.730957 368.065827,51.575441 366.851303,51.2644043 C365.636779,50.9533676 364.614816,50.4571974 363.785385,49.7758789 C362.955954,49.0945604 362.326484,48.1910864 361.896957,47.0654297 C361.46743,45.939773 361.25267,44.5475343 361.25267,42.8886719 C361.25267,39.8671724 361.81549,36.9345845 362.941147,34.0908203 C364.066803,31.2470561 365.866346,28.7291776 368.339828,26.5371094 C370.813311,24.3450411 374.019903,22.5825262 377.959701,21.2495117 C381.8995,19.9164972 386.683469,19.25 392.311752,19.25 C393.230051,19.25 394.259419,19.3092442 395.399887,19.4277344 C396.540355,19.5462246 397.754861,19.6721185 399.043442,19.8054199 C400.332022,19.9387214 401.687233,20.0646153 403.109116,20.1831055 C404.530998,20.3015956 405.96767,20.3608398 407.419174,20.3608398 C408.841056,20.3608398 410.2407,20.2793791 411.618149,20.1164551 C412.995597,19.9535311 414.321186,19.6647156 415.594955,19.25 C415.29873,20.1979214 415.009914,21.2272894 414.7285,22.3381348 C414.447086,23.4489802 414.024971,24.5227813 413.462143,25.5595703 C412.899315,26.5963594 412.114329,27.536861 411.107162,28.3811035 C410.099996,29.225346 408.722568,29.8251935 406.974838,30.1806641 C404.812393,30.1806641 402.679601,30.0177425 400.576401,29.6918945 C398.4732,29.3660465 396.35522,28.9513372 394.222397,28.4477539 L390.401108,46.5322266 L403.686752,46.5322266 L402.220444,53.2861328 L388.934799,53.2861328 L381.558823,87.5 L368.450912,87.5 Z M593.032552,71.1928711 L592.662826,71.1928711 C592.336979,72.3481503 591.93708,73.4515735 591.463119,74.5031738 C590.989159,75.5547741 590.44115,76.4656537 589.819076,77.2358398 C589.197003,78.006026 588.508289,78.6206846 587.752914,79.079834 C586.99754,79.5389834 586.175526,79.7685547 585.28685,79.7685547 C582.798556,79.7685547 581.554428,78.4651823 581.554428,75.8583984 C581.554428,75.3844377 581.58405,74.9030786 581.643295,74.4143066 C581.70254,73.9255347 581.806218,73.4293645 581.95433,72.9257813 L588.486069,42 L575.378159,42 L574.400619,46.8432617 L574.400619,46.1767578 C574.400619,44.8733659 573.815583,43.7773482 572.645493,42.8886719 C571.475402,41.9999956 569.601804,41.5556641 567.024643,41.5556641 C564.388236,41.5556641 561.974035,42.0518342 559.781967,43.0441895 C557.589899,44.0365447 555.627435,45.3695392 553.894516,47.0432129 C552.161597,48.7168866 550.65087,50.6423231 549.362289,52.8195801 C548.073709,54.9968371 546.999908,57.2703332 546.140854,59.6401367 C545.2818,62.0099402 544.644925,64.3797082 544.230209,66.7495117 C543.815494,69.1193152 543.608139,71.3409727 543.608139,73.4145508 C543.608139,73.5927892 543.609628,73.7692143 543.612607,73.9438262 C543.529871,74.1182511 543.44692,74.2898891 543.363754,74.4587402 C542.874982,75.4510955 542.334379,76.3027308 541.741928,77.0136719 C541.149477,77.7246129 540.48298,78.2726218 539.742416,78.6577148 C539.001853,79.0428079 538.142812,79.2353516 537.165268,79.2353516 C535.773008,79.2353516 534.817696,78.8798864 534.299301,78.1689453 C533.780907,77.4580043 533.521713,76.5397192 533.521713,75.4140625 C533.521713,74.5550087 533.632796,73.5552629 533.854965,72.4147949 C534.077134,71.274327 534.343733,70.0376043 534.65477,68.7045898 C534.965807,67.3715754 535.313866,65.9793367 535.698959,64.527832 C536.084052,63.0763274 536.432112,61.617439 536.743149,60.151123 C537.054185,58.6848071 537.320784,57.2481353 537.542953,55.8410645 C537.765123,54.4339936 537.876205,53.1232157 537.876205,51.9086914 C537.876205,50.1017162 537.624418,48.546556 537.120834,47.2431641 C536.617251,45.9397721 535.913726,44.8733765 535.010239,44.0439453 C534.106751,43.2145141 533.040355,42.607261 531.81102,42.222168 C530.581684,41.8370749 529.241284,41.6445312 527.78978,41.6445312 C526.960348,41.6445312 526.042063,41.7333975 525.034897,41.9111328 C524.02773,42.0888681 522.976146,42.4443333 521.880112,42.9775391 C520.784078,43.5107449 519.658438,44.288325 518.503159,45.3103027 C517.347879,46.3322805 516.22224,47.6874916 515.126205,49.3759766 C514.889225,47.9540945 514.489327,46.7469939 513.926498,45.7546387 C513.36367,44.7622834 512.682362,43.9550812 511.882553,43.3330078 C511.082744,42.7109344 510.164459,42.2591974 509.12767,41.9777832 C508.090881,41.696369 506.980052,41.5556641 505.795151,41.5556641 C504.995342,41.5556641 504.151112,41.6223138 503.262436,41.7556152 C502.37376,41.8889167 501.455474,42.1407045 500.507553,42.5109863 C499.559632,42.8812681 498.596913,43.3996549 497.619369,44.0661621 C496.641826,44.7326693 495.664296,45.6139268 494.686752,46.7099609 L495.664291,42 L482.556381,42 L472.914291,87.5 L486.022201,87.5 L492.198471,58.3071289 C492.553942,57.1518497 492.968651,56.055832 493.442612,55.019043 C493.916572,53.9822539 494.457176,53.0787799 495.064438,52.3085937 C495.6717,51.5384076 496.353008,50.9311546 497.108383,50.4868164 C497.863758,50.0424782 498.685771,49.8203125 499.574448,49.8203125 C500.107653,49.8203125 500.544579,49.9313954 500.885239,50.1535645 C501.225898,50.3757335 501.507308,50.6719545 501.729477,51.0422363 C501.951646,51.4125181 502.107162,51.834633 502.19603,52.3085937 C502.284897,52.7825545 502.32933,53.2861301 502.32933,53.8193359 C502.32933,54.6191446 502.240464,55.3745082 502.062729,56.0854492 L495.39769,87.5 L508.5056,87.5 L514.681869,58.3071289 C515.03734,57.1518497 515.452049,56.0632375 515.92601,55.0412598 C516.399971,54.019282 516.933169,53.130619 517.525619,52.3752441 C518.11807,51.6198693 518.769757,51.0200218 519.480698,50.5756836 C520.191639,50.1313454 520.961813,49.9091797 521.791244,49.9091797 C523.983313,49.9091797 525.07933,51.4643399 525.07933,54.574707 C525.07933,56.0262117 524.86457,57.7591045 524.435043,59.7734375 C524.005516,61.7877705 523.538968,63.8761285 523.035385,66.0385742 C522.531802,68.2010199 522.065254,70.3115945 521.635727,72.3703613 C521.2062,74.4291281 520.99144,76.2286707 520.99144,77.769043 C520.99144,79.0724349 521.176578,80.3387797 521.54686,81.5681152 C521.917142,82.7974508 522.516989,83.8934685 523.34642,84.8562012 C524.175851,85.8189339 525.271869,86.5891084 526.634506,87.166748 C527.997143,87.7443877 529.685603,88.0332031 531.699936,88.0332031 C532.91446,88.0332031 534.240049,87.8554705 535.676743,87.5 C537.113436,87.1445295 538.57973,86.3817604 540.075668,85.2116699 C541.571607,84.0415794 543.052712,82.3457142 544.519028,80.1240234 C544.532796,80.1031619 544.546556,80.0822337 544.560308,80.061239 L544.560308,80.061239 C544.583164,80.1271016 544.606432,80.1924634 544.630112,80.2573242 C545.31143,82.1235445 546.214904,83.6342716 547.340561,84.7895508 C548.466218,85.94483 549.754779,86.7742488 551.206284,87.277832 C552.657788,87.7814153 554.168515,88.0332031 555.73851,88.0332031 C557.36775,88.0332031 558.856261,87.7888208 560.204086,87.3000488 C561.551912,86.8112769 562.773824,86.1744017 563.869858,85.3894043 C564.965892,84.6044069 565.958232,83.7157439 566.846909,82.7233887 C567.735585,81.7310334 568.550193,80.7164765 569.290756,79.6796875 C569.616604,82.4345841 570.542295,84.5155366 572.067856,85.9226074 C573.593417,87.3296783 575.644747,88.0332031 578.221909,88.0332031 C579.021717,88.0332031 579.91038,87.9591479 580.887924,87.8110352 C581.865468,87.6629224 582.887431,87.3815125 583.953842,86.9667969 C585.020254,86.5520813 586.116271,85.9596393 587.241928,85.1894531 C588.367585,84.419267 589.471008,83.4121156 590.552231,82.1679688 C591.133196,81.4994614 591.703465,80.7497122 592.263045,79.9187141 C592.348168,80.5804023 592.474022,81.2190683 592.64061,81.8347168 C592.981269,83.0936749 593.514467,84.1822871 594.240219,85.1005859 C594.965971,86.0188848 595.906473,86.7372207 597.061752,87.2556152 C598.217031,87.7740098 599.60927,88.0332031 601.23851,88.0332031 C602.038319,88.0332031 602.860332,87.9369313 603.704575,87.7443848 C604.548817,87.5518382 605.385641,87.1445344 606.215073,86.5224609 C607.044504,85.9003875 607.859112,85.004319 608.65892,83.8342285 C609.458729,82.664138 610.199281,81.1015723 610.8806,79.1464844 C610.495507,79.2945971 610.080797,79.3760579 609.636459,79.3908691 C609.192121,79.4056804 608.807034,79.4130859 608.481186,79.4130859 C607.237039,79.4130859 606.400215,79.1020539 605.970688,78.4799805 C605.541161,77.857907 605.326401,77.0729214 605.326401,76.125 C605.326401,75.6806618 605.363428,75.1844917 605.437485,74.6364746 C605.511541,74.0884575 605.622624,73.5182321 605.770737,72.9257812 L611.591537,45.6435547 L617.056869,45.6435547 L617.767807,42 L612.302475,42 C612.717191,39.9560445 613.109683,38.0528246 613.479965,36.2902832 C613.850247,34.5277418 614.198307,33.0096092 614.524155,31.7358398 C614.672267,30.9656537 614.820378,30.2325067 614.968491,29.536377 C615.116603,28.8402472 615.264714,28.1959665 615.412826,27.6035156 L601.949448,29.425293 L599.194565,42 L596.217514,42 L595.462143,45.6435547 L598.483627,45.6435547 L593.032552,71.1928711 Z M429.680405,60.7509766 C428.732483,60.5139962 428.088203,60.0474481 427.747543,59.3513184 C427.406884,58.6551886 427.236557,57.8479864 427.236557,56.9296875 C427.236557,55.6559181 427.49575,54.6117391 428.014145,53.7971191 C428.532539,52.9824992 429.221253,52.3826517 430.080307,51.9975586 C430.021062,51.0200146 429.917385,50.1980014 429.769272,49.5314941 C429.621159,48.8649869 429.413804,48.3169781 429.147201,47.8874512 C428.880599,47.4579243 428.54735,47.1542978 428.147446,46.9765625 C427.747541,46.7988272 427.23656,46.7099609 426.614487,46.7099609 C425.518453,46.7099609 424.466868,47.1320759 423.459701,47.9763184 C422.452535,48.8205609 421.497222,49.9387951 420.593735,51.3310547 C419.690247,52.7233143 418.860828,54.3155021 418.105453,56.107666 C417.350079,57.8998299 416.705798,59.7438056 416.172592,61.6396484 C415.639386,63.5354912 415.224677,65.4090891 414.928451,67.260498 C414.632226,69.111907 414.484116,70.7929612 414.484116,72.3037109 C414.484116,73.8144607 414.565576,75.0437778 414.7285,75.9916992 C414.891424,76.9396206 415.158023,77.6875786 415.528305,78.2355957 C415.898587,78.7836128 416.379946,79.1612945 416.972397,79.3686523 C417.564848,79.5760102 418.290589,79.6796875 419.149643,79.6796875 C420.245677,79.6796875 421.3491,79.1909229 422.459946,78.2133789 C423.570791,77.235835 424.600159,75.9028405 425.54808,74.2143555 C426.496002,72.5258705 427.332826,70.5263787 428.058578,68.2158203 C428.784331,65.9052619 429.324934,63.4170055 429.680405,60.7509766 Z M573.556381,50.6645508 C573.556381,50.3979479 573.497137,50.0646993 573.378647,49.6647949 C573.260157,49.2648906 573.060207,48.8798033 572.778793,48.5095215 C572.497379,48.1392397 572.119697,47.8282076 571.645737,47.576416 C571.171776,47.3246244 570.564523,47.1987305 569.823959,47.1987305 C568.55019,47.1987305 567.343089,47.6134399 566.202621,48.4428711 C565.062153,49.2723023 564.017974,50.3757255 563.070053,51.7531738 C562.122132,53.1306221 561.277902,54.6931879 560.537338,56.440918 C559.796775,58.1886481 559.167305,59.9881906 558.64891,61.8395996 C558.130516,63.6910086 557.738023,65.5127677 557.47142,67.3049316 C557.204817,69.0970955 557.071518,70.7040945 557.071518,72.1259766 C557.071518,73.8737067 557.234439,75.2215122 557.560287,76.1694336 C557.886135,77.117355 558.278628,77.8208799 558.737778,78.2800293 C559.196927,78.7391787 559.693097,79.0131831 560.226303,79.1020508 C560.759509,79.1909184 561.233462,79.2353516 561.648178,79.2353516 C562.329497,79.2353516 563.047832,79.0650245 563.803207,78.7243652 C564.558582,78.383706 565.284324,77.8801303 565.980453,77.213623 C566.676583,76.5471158 567.313458,75.7102915 567.891098,74.703125 C568.468738,73.6959585 568.905664,72.5258856 569.201889,71.1928711 L573.556381,50.6645508 Z M763.923924,54.08553 C763.815796,54.1307198 763.707442,54.1752892 763.598862,54.2192383 C762.354715,54.7228215 761.117992,55.1301254 759.888657,55.4411621 C758.659321,55.7521988 757.511465,55.9077148 756.445053,55.9077148 L755.889633,55.9077148 C755.756332,55.9077148 755.615627,55.8780927 755.467514,55.8188477 L755.467514,55.7299805 C755.467514,46.0434086 751.572208,41.2001953 743.781479,41.2001953 C740.671112,41.2001953 737.901445,41.7556097 735.472397,42.8664551 C733.043348,43.9773005 730.903152,45.4361889 729.051743,47.2431641 C727.200334,49.0501392 725.630362,51.1014696 724.341782,53.3972168 C723.053201,55.692964 722.001616,58.0405153 721.186996,60.4399414 C720.372376,62.8393675 719.779934,65.1721078 719.409653,67.4382324 C719.039371,69.704357 718.854233,71.7260653 718.854233,73.503418 C718.854233,73.7516526 718.857523,73.9963278 718.864104,74.2374435 C718.831554,74.2966825 718.798641,74.3556369 718.765366,74.4143066 C718.202537,75.4066619 717.565662,76.2582972 716.854721,76.9692383 C716.14378,77.6801793 715.3662,78.2355937 714.521957,78.635498 C713.677715,79.0354024 712.811268,79.2353516 711.922592,79.2353516 C710.648823,79.2353516 709.715727,78.9909692 709.123276,78.5021973 C708.530825,78.0134253 708.234604,77.1321678 708.234604,75.8583984 C708.234604,75.3844377 708.25682,74.9030786 708.301254,74.4143066 C708.345688,73.9255347 708.44196,73.4293645 708.590073,72.9257813 L719.031967,23.7822266 L705.568588,25.6040039 L695.837631,71.1928711 C695.600651,72.3481503 695.422918,73.4219514 695.304428,74.4143066 C695.185938,75.4066619 695.126694,76.3175414 695.126694,77.1469727 C695.126694,79.072438 695.378482,80.7164645 695.882065,82.0791016 C696.385648,83.4417386 697.074362,84.5673784 697.948227,85.4560547 C698.822092,86.344731 699.85146,86.9964172 701.036362,87.4111328 C702.221263,87.8258484 703.495014,88.0332031 704.857651,88.0332031 C705.657459,88.0332031 706.568339,87.9591479 707.590317,87.8110352 C708.612294,87.6629224 709.686096,87.3815125 710.811752,86.9667969 C711.937409,86.5520813 713.100076,85.9596393 714.299789,85.1894531 C715.499502,84.419267 716.669575,83.4121156 717.810043,82.1679688 C718.478979,81.4382209 719.132622,80.6116646 719.770979,79.6882907 L719.770979,79.6882907 C719.825812,79.8436009 719.883104,79.9962507 719.942856,80.1462402 C720.668608,81.9680267 721.67576,83.4491317 722.96434,84.5895996 C724.252921,85.7300676 725.79327,86.5594863 727.585434,87.0778809 C729.377598,87.5962754 731.325251,87.8554688 733.428451,87.8554688 C736.212971,87.8554688 738.849337,87.2185936 741.337631,85.9448242 C743.825925,84.6710548 746.032771,82.8492957 747.958237,80.4794922 C749.883702,78.1096887 751.47589,75.236345 752.734848,71.859375 C753.993806,68.482405 754.801008,64.6907762 755.156479,60.484375 C757.481733,60.0934031 759.678317,59.5237596 761.746261,58.7754353 C761.634837,59.0622303 761.526622,59.350464 761.421616,59.6401367 C760.562562,62.0099402 759.925687,64.3797082 759.510971,66.7495117 C759.096255,69.1193152 758.888901,71.3409727 758.888901,73.4145508 C758.888901,76.1102023 759.229555,78.391104 759.910873,80.2573242 C760.592192,82.1235445 761.495666,83.6342716 762.621323,84.7895508 C763.746979,85.94483 765.035541,86.7742488 766.487045,87.277832 C767.93855,87.7814153 769.449277,88.0332031 771.019272,88.0332031 C772.204174,88.0332031 773.315002,87.8999037 774.351791,87.6333008 C775.38858,87.3666979 776.358704,87.0038272 777.262192,86.5446777 C778.165679,86.0855283 779.002504,85.5523305 779.77269,84.9450684 C780.542876,84.3378062 781.268617,83.6787145 781.949936,82.9677734 L781.105698,86.7890625 C778.913629,87.4407585 776.862299,88.1146612 774.951645,88.810791 C773.040991,89.5069208 771.374748,90.3585562 769.952866,91.3657227 C768.530983,92.3728892 767.412749,93.6022063 766.598129,95.0537109 C765.783509,96.5052156 765.376205,98.2973526 765.376205,100.430176 C765.376205,101.911303 765.679832,103.251703 766.287094,104.451416 C766.894356,105.651129 767.694153,106.680497 768.686508,107.539551 C769.678863,108.398605 770.819314,109.065102 772.107895,109.539063 C773.396476,110.013023 774.722064,110.25 776.084701,110.25 C777.565829,110.25 779.143205,110.057456 780.816879,109.672363 C782.490553,109.28727 784.090146,108.531907 785.615707,107.40625 C787.141268,106.280593 788.533507,104.710622 789.792465,102.696289 C791.051423,100.681956 792.006736,98.0455892 792.658432,94.7871094 L803.76683,42 L790.570053,42 L789.681381,46.3544922 L789.681381,46.1767578 C789.681381,44.8733659 789.096345,43.7773482 787.926254,42.8886719 C786.756164,41.9999956 784.882566,41.5556641 782.305405,41.5556641 C779.668998,41.5556641 777.254797,42.0518342 775.062729,43.0441895 C772.870661,44.0365447 770.908196,45.3695392 769.175278,47.0432129 C767.442359,48.7168866 765.931632,50.6423231 764.643051,52.8195801 C764.39541,53.2380087 764.155701,53.6599919 763.923924,54.08553 Z M646.605209,87.5 L658.957748,29.6030273 L672.421127,27.8256836 L668.155502,47.9985352 L668.688705,47.9985352 C670.495681,47.9985352 672.191546,47.5542037 673.776352,46.6655273 C675.361158,45.776851 676.745991,44.6215891 677.930893,43.199707 C679.115795,41.7778249 680.056296,40.1930426 680.752426,38.4453125 C681.448556,36.6975824 681.796616,34.9646896 681.796616,33.246582 C681.796616,31.9728126 681.57445,30.750901 681.130112,29.5808105 C680.685773,28.4107201 679.989654,27.366541 679.041733,26.4482422 C678.093811,25.5299433 676.857089,24.7967964 675.331528,24.2487793 C673.805967,23.7007622 671.961991,23.4267578 669.799545,23.4267578 C668.022193,23.4267578 666.22265,23.626707 664.400864,24.0266113 C662.579077,24.4265157 660.831373,25.0337687 659.1577,25.8483887 C657.484026,26.6630086 655.906649,27.6775655 654.425522,28.8920898 C652.944395,30.1066141 651.663239,31.5358805 650.582016,33.1799316 C649.500793,34.8239828 648.641752,36.6753641 648.004868,38.7341309 C647.367983,40.7928977 647.049545,43.0663938 647.049545,45.5546875 C647.049545,46.7099667 647.116195,47.6504684 647.249496,48.3762207 C647.382798,49.101973 647.530908,49.679604 647.693832,50.1091309 C647.856756,50.5386577 648.004867,50.8719064 648.138168,51.1088867 C648.27147,51.3458671 648.338119,51.5532218 648.338119,51.730957 C645.257375,51.730957 642.86539,51.1088929 641.162094,49.8647461 C639.458798,48.6205992 638.607162,46.458186 638.607162,43.3774414 C638.607162,41.2742408 639.021872,39.2229104 639.851303,37.2233887 C640.680734,35.223867 641.843402,33.3280526 643.33934,31.5358887 C644.835279,29.7437248 646.612605,28.0996982 648.671371,26.6037598 C650.730138,25.1078213 652.981418,23.8118544 655.425278,22.7158203 C657.869138,21.6197862 660.461071,20.7681508 663.201157,20.1608887 C665.941242,19.5536265 668.747936,19.25 671.621323,19.25 C674.96867,19.25 677.856825,19.6573039 680.285873,20.4719238 C682.714922,21.2865438 684.721819,22.3603449 686.306625,23.6933594 C687.891431,25.0263739 689.06891,26.566723 689.839096,28.3144531 C690.609282,30.0621832 690.994369,31.8691313 690.994369,33.7353516 C690.994369,35.0979886 690.801826,36.4606052 690.416733,37.8232422 C690.03164,39.1858792 689.454009,40.4892516 688.683823,41.7333984 C687.913636,42.9775453 686.958324,44.1550237 685.817856,45.2658691 C684.677388,46.3767145 683.36661,47.3468383 681.885483,48.1762695 C683.840571,48.5317401 685.499408,49.1760207 686.862045,50.1091309 C688.224682,51.042241 689.335511,52.1678808 690.194565,53.486084 C691.053619,54.8042872 691.675683,56.2631756 692.060776,57.862793 C692.445869,59.4624103 692.638412,61.1212479 692.638412,62.8393555 C692.638412,64.2908601 692.497707,65.9496977 692.216293,67.815918 C691.934879,69.6821382 691.483142,71.5853581 690.861069,73.5256348 C690.238995,75.4659114 689.424388,77.3691313 688.417221,79.2353516 C687.410055,81.1015718 686.165926,82.7604094 684.684799,84.2119141 C683.203672,85.6634187 681.478185,86.8334917 679.508285,87.722168 C677.538386,88.6108443 675.279701,89.0551758 672.732162,89.0551758 C671.754618,89.0551758 670.732656,88.9663095 669.666244,88.7885742 C668.599833,88.610839 667.629709,88.2701848 666.755844,87.7666016 C665.881979,87.2630183 665.156238,86.5743045 664.578598,85.7004395 C664.000958,84.8265744 663.712143,83.6935291 663.712143,82.3012695 C663.712143,81.5310834 663.801009,80.7164756 663.978744,79.8574219 C664.15648,78.9983681 664.452701,78.0504609 664.867416,77.0136719 C666.022696,78.2578187 667.07428,79.1168596 668.022201,79.5908203 C668.970123,80.064781 669.962463,80.3017578 670.999252,80.3017578 C672.658115,80.3017578 674.057759,79.7759655 675.198227,78.7243652 C676.338695,77.6727649 677.264385,76.3397704 677.975326,74.7253418 C678.686268,73.1109132 679.197249,71.3409927 679.508285,69.4155273 C679.819322,67.490062 679.974838,65.6683029 679.974838,63.9501953 C679.974838,62.3802005 679.834133,60.89169 679.552719,59.4846191 C679.271305,58.0775483 678.797351,56.8482312 678.130844,55.7966309 C677.464337,54.7450305 676.583079,53.9082062 675.487045,53.2861328 C674.391011,52.6640594 673.013583,52.3530273 671.354721,52.3530273 C670.969628,52.3530273 670.391997,52.3678384 669.621811,52.3974609 C668.851625,52.4270835 668.037017,52.5159498 667.177963,52.6640625 L659.713119,87.5 L646.605209,87.5 Z M747.602768,60.7509766 C746.654846,60.5139962 746.010566,60.0474481 745.669907,59.3513184 C745.329247,58.6551886 745.15892,57.8479864 745.15892,56.9296875 C745.15892,55.6559181 745.418114,54.6117391 745.936508,53.7971191 C746.454903,52.9824992 747.143616,52.3826517 748.00267,51.9975586 C747.943425,51.0200146 747.839748,50.1980014 747.691635,49.5314941 C747.543522,48.8649869 747.336168,48.3169781 747.069565,47.8874512 C746.802962,47.4579243 746.469713,47.1542978 746.069809,46.9765625 C745.669905,46.7988272 745.158923,46.7099609 744.53685,46.7099609 C743.440816,46.7099609 742.389231,47.1320759 741.382065,47.9763184 C740.374898,48.8205609 739.419586,49.9387951 738.516098,51.3310547 C737.61261,52.7233143 736.783192,54.3155021 736.027817,56.107666 C735.272442,57.8998299 734.628161,59.7438056 734.094955,61.6396484 C733.56175,63.5354913 733.14704,65.4090891 732.850815,67.260498 C732.554589,69.111907 732.406479,70.7929612 732.406479,72.3037109 C732.406479,73.8144607 732.48794,75.0437778 732.650864,75.9916992 C732.813788,76.9396206 733.080386,77.6875786 733.450668,78.2355957 C733.82095,78.7836128 734.302309,79.1612945 734.89476,79.3686523 C735.487211,79.5760102 736.212952,79.6796875 737.072006,79.6796875 C738.16804,79.6796875 739.271464,79.1909229 740.382309,78.2133789 C741.493154,77.235835 742.522522,75.9028405 743.470444,74.2143555 C744.418365,72.5258705 745.255189,70.5263787 745.980942,68.2158203 C746.706694,65.9052619 747.247297,63.4170055 747.602768,60.7509766 L747.602768,60.7509766 Z M788.837143,50.3535156 C788.777898,50.0572902 788.681626,49.7314471 788.548325,49.3759766 C788.415023,49.020506 788.215074,48.6798519 787.948471,48.3540039 C787.681868,48.0281559 787.318997,47.7541515 786.859848,47.5319824 C786.400699,47.3098133 785.815662,47.1987305 785.104721,47.1987305 C783.830952,47.1987305 782.623851,47.6134399 781.483383,48.4428711 C780.342915,49.2723023 779.298736,50.3757255 778.350815,51.7531738 C777.402893,53.1306221 776.558664,54.6931879 775.8181,56.440918 C775.077536,58.1886481 774.448067,59.9881906 773.929672,61.8395996 C773.411278,63.6910086 773.018785,65.5127677 772.752182,67.3049316 C772.485579,69.0970955 772.35228,70.7040945 772.35228,72.1259766 C772.35228,73.8737067 772.515201,75.2215122 772.841049,76.1694336 C773.166897,77.117355 773.55939,77.8208799 774.018539,78.2800293 C774.477689,78.7391787 774.973859,79.0131831 775.507065,79.1020508 C776.040271,79.1909184 776.514224,79.2353516 776.92894,79.2353516 C777.551013,79.2353516 778.210105,79.0946466 778.906235,78.8132324 C779.602364,78.5318183 780.291078,78.1097033 780.972397,77.546875 C781.653715,76.9840467 782.275779,76.2731163 782.838608,75.4140625 C783.401436,74.5550087 783.860579,73.5478573 784.216049,72.3925781 L788.837143,50.3535156 Z M780.483627,89.6772461 C779.061745,90.1512068 777.728751,90.6844046 776.484604,91.2768555 C775.240457,91.8693063 774.166656,92.5432091 773.263168,93.298584 C772.359681,94.0539589 771.64875,94.9129997 771.130356,95.8757324 C770.611961,96.8384651 770.352768,97.9270773 770.352768,99.1416016 C770.352768,99.4970721 770.441634,99.8525373 770.619369,100.208008 C770.797105,100.563478 771.048893,100.881916 771.374741,101.16333 C771.700589,101.444744 772.085676,101.681721 772.530014,101.874268 C772.974352,102.066814 773.463117,102.163086 773.996323,102.163086 C774.470283,102.163086 774.966453,102.052003 775.484848,101.829834 C776.003243,101.607665 776.499413,101.222578 776.973373,100.674561 C777.447334,100.126543 777.891666,99.3933965 778.306381,98.4750977 C778.721097,97.5567988 779.076562,96.416348 779.372787,95.0537109 L780.483627,89.6772461 Z" id="The-Large-Format-Blo" fill="#FFFFFF" sketch:type="MSShapeGroup" transform="translate(403.797836, 64.750000) rotate(-3.000000) translate(-403.797836, -64.750000) "></path>
    </g>
</svg>